<svg width="225" height="48" viewBox="0 0 225 48" fill="none" xmlns="http://www.w3.org/2000/svg">
<mask id="path-1-outside-1_12_15" maskUnits="userSpaceOnUse" x="0" y="0" width="225" height="48" fill="black">
<rect fill="white" width="225" height="48"/>
<path d="M29.2096 23.28C31.6896 23.84 33.6496 25.08 35.0896 27C36.5696 28.88 37.3096 31.04 37.3096 33.48C37.3096 37.08 36.0696 39.9 33.5896 41.94C31.1096 43.98 27.6296 45 23.1496 45H2.20961V2.7H22.4896C26.8096 2.7 30.1896 3.66 32.6296 5.58C35.1096 7.5 36.3496 10.2 36.3496 13.68C36.3496 16.16 35.6896 18.24 34.3696 19.92C33.0896 21.56 31.3696 22.68 29.2096 23.28ZM13.9696 19.5H19.9096C22.8696 19.5 24.3496 18.28 24.3496 15.84C24.3496 13.32 22.8696 12.06 19.9096 12.06H13.9696V19.5ZM20.8096 35.52C23.7696 35.52 25.2496 34.28 25.2496 31.8C25.2496 30.52 24.8496 29.54 24.0496 28.86C23.2896 28.18 22.1896 27.84 20.7496 27.84H13.9696V35.52H20.8096ZM58.1235 45.42C54.7635 45.42 51.7435 44.72 49.0635 43.32C46.4235 41.92 44.3435 39.92 42.8235 37.32C41.3035 34.72 40.5435 31.66 40.5435 28.14C40.5435 24.66 41.3035 21.62 42.8235 19.02C44.3835 16.42 46.4835 14.42 49.1235 13.02C51.8035 11.62 54.8235 10.92 58.1835 10.92C61.5435 10.92 64.5435 11.62 67.1835 13.02C69.8635 14.42 71.9635 16.42 73.4835 19.02C75.0435 21.62 75.8235 24.66 75.8235 28.14C75.8235 31.62 75.0435 34.68 73.4835 37.32C71.9635 39.92 69.8635 41.92 67.1835 43.32C64.5035 44.72 61.4835 45.42 58.1235 45.42ZM58.1235 35.22C59.7635 35.22 61.1235 34.62 62.2035 33.42C63.3235 32.18 63.8835 30.42 63.8835 28.14C63.8835 25.86 63.3235 24.12 62.2035 22.92C61.1235 21.72 59.7835 21.12 58.1835 21.12C56.5835 21.12 55.2435 21.72 54.1635 22.92C53.0835 24.12 52.5435 25.86 52.5435 28.14C52.5435 30.46 53.0635 32.22 54.1035 33.42C55.1435 34.62 56.4835 35.22 58.1235 35.22ZM92.368 17.28C93.688 15.36 95.288 13.84 97.168 12.72C99.048 11.6 101.068 11.04 103.228 11.04V23.58H99.928C97.368 23.58 95.468 24.08 94.228 25.08C92.988 26.08 92.368 27.82 92.368 30.3V45H80.608V11.34H92.368V17.28ZM119.204 17.28C120.524 15.36 122.124 13.84 124.004 12.72C125.884 11.6 127.904 11.04 130.064 11.04V23.58H126.764C124.204 23.58 122.304 24.08 121.064 25.08C119.824 26.08 119.204 27.82 119.204 30.3V45H107.444V11.34H119.204V17.28ZM149.94 45.42C146.58 45.42 143.56 44.72 140.88 43.32C138.24 41.92 136.16 39.92 134.64 37.32C133.12 34.72 132.36 31.66 132.36 28.14C132.36 24.66 133.12 21.62 134.64 19.02C136.2 16.42 138.3 14.42 140.94 13.02C143.62 11.62 146.64 10.92 150 10.92C153.36 10.92 156.36 11.62 159 13.02C161.68 14.42 163.78 16.42 165.3 19.02C166.86 21.62 167.64 24.66 167.64 28.14C167.64 31.62 166.86 34.68 165.3 37.32C163.78 39.92 161.68 41.92 159 43.32C156.32 44.72 153.3 45.42 149.94 45.42ZM149.94 35.22C151.58 35.22 152.94 34.62 154.02 33.42C155.14 32.18 155.7 30.42 155.7 28.14C155.7 25.86 155.14 24.12 154.02 22.92C152.94 21.72 151.6 21.12 150 21.12C148.4 21.12 147.06 21.72 145.98 22.92C144.9 24.12 144.36 25.86 144.36 28.14C144.36 30.46 144.88 32.22 145.92 33.42C146.96 34.62 148.3 35.22 149.94 35.22ZM222.164 11.34L213.584 45H200.384L195.704 24.6L190.844 45H177.704L169.184 11.34H180.884L184.664 33.66L189.644 11.34H202.244L207.404 33.72L211.124 11.34H222.164Z"/>
</mask>
<path d="M29.2096 23.28C31.6896 23.84 33.6496 25.08 35.0896 27C36.5696 28.88 37.3096 31.04 37.3096 33.48C37.3096 37.08 36.0696 39.9 33.5896 41.94C31.1096 43.98 27.6296 45 23.1496 45H2.20961V2.7H22.4896C26.8096 2.7 30.1896 3.66 32.6296 5.58C35.1096 7.5 36.3496 10.2 36.3496 13.68C36.3496 16.16 35.6896 18.24 34.3696 19.92C33.0896 21.56 31.3696 22.68 29.2096 23.28ZM13.9696 19.5H19.9096C22.8696 19.5 24.3496 18.28 24.3496 15.84C24.3496 13.32 22.8696 12.06 19.9096 12.06H13.9696V19.5ZM20.8096 35.52C23.7696 35.52 25.2496 34.28 25.2496 31.8C25.2496 30.52 24.8496 29.54 24.0496 28.86C23.2896 28.18 22.1896 27.84 20.7496 27.84H13.9696V35.52H20.8096ZM58.1235 45.42C54.7635 45.42 51.7435 44.72 49.0635 43.32C46.4235 41.92 44.3435 39.92 42.8235 37.32C41.3035 34.72 40.5435 31.66 40.5435 28.14C40.5435 24.66 41.3035 21.62 42.8235 19.02C44.3835 16.42 46.4835 14.42 49.1235 13.02C51.8035 11.62 54.8235 10.92 58.1835 10.92C61.5435 10.92 64.5435 11.62 67.1835 13.02C69.8635 14.42 71.9635 16.42 73.4835 19.02C75.0435 21.62 75.8235 24.66 75.8235 28.14C75.8235 31.62 75.0435 34.68 73.4835 37.32C71.9635 39.92 69.8635 41.92 67.1835 43.32C64.5035 44.72 61.4835 45.42 58.1235 45.42ZM58.1235 35.22C59.7635 35.22 61.1235 34.62 62.2035 33.42C63.3235 32.18 63.8835 30.42 63.8835 28.14C63.8835 25.86 63.3235 24.12 62.2035 22.92C61.1235 21.72 59.7835 21.12 58.1835 21.12C56.5835 21.12 55.2435 21.72 54.1635 22.92C53.0835 24.12 52.5435 25.86 52.5435 28.14C52.5435 30.46 53.0635 32.22 54.1035 33.42C55.1435 34.62 56.4835 35.22 58.1235 35.22ZM92.368 17.28C93.688 15.36 95.288 13.84 97.168 12.72C99.048 11.6 101.068 11.04 103.228 11.04V23.58H99.928C97.368 23.58 95.468 24.08 94.228 25.08C92.988 26.08 92.368 27.82 92.368 30.3V45H80.608V11.34H92.368V17.28ZM119.204 17.28C120.524 15.36 122.124 13.84 124.004 12.72C125.884 11.6 127.904 11.04 130.064 11.04V23.58H126.764C124.204 23.58 122.304 24.08 121.064 25.08C119.824 26.08 119.204 27.82 119.204 30.3V45H107.444V11.34H119.204V17.28ZM149.94 45.42C146.58 45.42 143.56 44.72 140.88 43.32C138.24 41.92 136.16 39.92 134.64 37.32C133.12 34.72 132.36 31.66 132.36 28.14C132.36 24.66 133.12 21.62 134.64 19.02C136.2 16.42 138.3 14.42 140.94 13.02C143.62 11.62 146.64 10.92 150 10.92C153.36 10.92 156.36 11.62 159 13.02C161.68 14.42 163.78 16.42 165.3 19.02C166.86 21.62 167.64 24.66 167.64 28.14C167.64 31.62 166.86 34.68 165.3 37.32C163.78 39.92 161.68 41.92 159 43.32C156.32 44.72 153.3 45.42 149.94 45.42ZM149.94 35.22C151.58 35.22 152.94 34.62 154.02 33.42C155.14 32.18 155.7 30.42 155.7 28.14C155.7 25.86 155.14 24.12 154.02 22.92C152.94 21.72 151.6 21.12 150 21.12C148.4 21.12 147.06 21.72 145.98 22.92C144.9 24.12 144.36 25.86 144.36 28.14C144.36 30.46 144.88 32.22 145.92 33.42C146.96 34.62 148.3 35.22 149.94 35.22ZM222.164 11.34L213.584 45H200.384L195.704 24.6L190.844 45H177.704L169.184 11.34H180.884L184.664 33.66L189.644 11.34H202.244L207.404 33.72L211.124 11.34H222.164Z" fill="white"/>
<path d="M29.2096 23.28L28.6743 21.353L28.7691 25.2309L29.2096 23.28ZM35.0896 27L33.4896 28.2L33.5037 28.2187L33.5181 28.2371L35.0896 27ZM33.5896 41.94L34.8602 43.4846L33.5896 41.94ZM2.20961 45H0.20961V47H2.20961V45ZM2.20961 2.7V0.699997H0.20961V2.7H2.20961ZM32.6296 5.58L31.3928 7.15174L31.399 7.15662L31.4053 7.16145L32.6296 5.58ZM34.3696 19.92L32.797 18.6843L32.793 18.6895L34.3696 19.92ZM13.9696 19.5H11.9696V21.5H13.9696V19.5ZM13.9696 12.06V10.06H11.9696V12.06H13.9696ZM24.0496 28.86L22.716 30.3505L22.735 30.3674L22.7543 30.3839L24.0496 28.86ZM13.9696 27.84V25.84H11.9696V27.84H13.9696ZM13.9696 35.52H11.9696V37.52H13.9696V35.52ZM28.7691 25.2309C30.8155 25.693 32.3525 26.6838 33.4896 28.2L36.6896 25.8C34.9467 23.4762 32.5637 21.987 29.6501 21.3291L28.7691 25.2309ZM33.5181 28.2371C34.7146 29.757 35.3096 31.4791 35.3096 33.48H39.3096C39.3096 30.6009 38.4246 28.003 36.6611 25.7629L33.5181 28.2371ZM35.3096 33.48C35.3096 36.5637 34.2776 38.7844 32.3191 40.3954L34.8602 43.4846C37.8616 41.0156 39.3096 37.5963 39.3096 33.48H35.3096ZM32.3191 40.3954C30.3155 42.0435 27.3471 43 23.1496 43V47C27.9121 47 31.9037 45.9165 34.8602 43.4846L32.3191 40.3954ZM23.1496 43H2.20961V47H23.1496V43ZM4.20961 45V2.7H0.20961V45H4.20961ZM2.20961 4.7H22.4896V0.699997H2.20961V4.7ZM22.4896 4.7C26.5337 4.7 29.4206 5.59983 31.3928 7.15174L33.8664 4.00826C30.9586 1.72017 27.0855 0.699997 22.4896 0.699997V4.7ZM31.4053 7.16145C33.3377 8.65756 34.3496 10.7411 34.3496 13.68H38.3496C38.3496 9.65884 36.8815 6.34244 33.854 3.99855L31.4053 7.16145ZM34.3496 13.68C34.3496 15.7872 33.7969 17.4117 32.797 18.6844L35.9422 21.1556C37.5823 19.0683 38.3496 16.5328 38.3496 13.68H34.3496ZM32.793 18.6895C31.7974 19.965 30.4555 20.8582 28.6743 21.353L29.7449 25.207C32.2837 24.5018 34.3818 23.155 35.9462 21.1505L32.793 18.6895ZM13.9696 21.5H19.9096V17.5H13.9696V21.5ZM19.9096 21.5C21.6141 21.5 23.2642 21.1566 24.5118 20.1283C25.8333 19.0389 26.3496 17.4811 26.3496 15.84H22.3496C22.3496 16.6389 22.1259 16.9111 21.9675 17.0417C21.735 17.2334 21.1652 17.5 19.9096 17.5V21.5ZM26.3496 15.84C26.3496 14.18 25.847 12.5982 24.5361 11.4821C23.2868 10.4185 21.6263 10.06 19.9096 10.06V14.06C21.153 14.06 21.7124 14.3314 21.9431 14.5279C22.1122 14.6718 22.3496 14.98 22.3496 15.84H26.3496ZM19.9096 10.06H13.9696V14.06H19.9096V10.06ZM11.9696 12.06V19.5H15.9696V12.06H11.9696ZM20.8096 37.52C22.5201 37.52 24.1755 37.1691 25.424 36.123C26.7403 35.0202 27.2496 33.4503 27.2496 31.8H23.2496C23.2496 32.6297 23.0189 32.9198 22.8552 33.057C22.6237 33.2509 22.0591 33.52 20.8096 33.52V37.52ZM27.2496 31.8C27.2496 30.0739 26.689 28.4786 25.3449 27.3361L22.7543 30.3839C23.0102 30.6014 23.2496 30.9661 23.2496 31.8H27.2496ZM25.3832 27.3695C24.1298 26.248 22.4799 25.84 20.7496 25.84V29.84C21.8993 29.84 22.4495 30.112 22.716 30.3505L25.3832 27.3695ZM20.7496 25.84H13.9696V29.84H20.7496V25.84ZM11.9696 27.84V35.52H15.9696V27.84H11.9696ZM13.9696 37.52H20.8096V33.52H13.9696V37.52ZM49.0635 43.32L48.1265 45.087L48.1375 45.0927L49.0635 43.32ZM42.8235 37.32L44.5501 36.3106L42.8235 37.32ZM42.8235 19.02L41.1085 17.991L41.1027 18.0008L41.0969 18.0106L42.8235 19.02ZM49.1235 13.02L48.1975 11.2473L48.1865 11.2531L49.1235 13.02ZM67.1835 13.02L66.2465 14.787L66.2575 14.7927L67.1835 13.02ZM73.4835 19.02L71.7569 20.0294L71.7627 20.0392L71.7685 20.049L73.4835 19.02ZM73.4835 37.32L71.7616 36.3025L71.7569 36.3106L73.4835 37.32ZM67.1835 43.32L66.2575 41.5473L67.1835 43.32ZM62.2035 33.42L60.7193 32.0794L60.7169 32.0821L62.2035 33.42ZM62.2035 22.92L60.7169 24.2579L60.729 24.2714L60.7414 24.2846L62.2035 22.92ZM54.1035 33.42L52.5921 34.7299L54.1035 33.42ZM58.1235 43.42C55.0496 43.42 52.3531 42.782 49.9896 41.5473L48.1375 45.0927C51.134 46.658 54.4775 47.42 58.1235 47.42V43.42ZM50.0005 41.5531C47.6917 40.3287 45.884 38.5923 44.5501 36.3106L41.0969 38.3294C42.803 41.2477 45.1553 43.5113 48.1265 45.0869L50.0005 41.5531ZM44.5501 36.3106C43.2374 34.0652 42.5435 31.3657 42.5435 28.14H38.5435C38.5435 31.9543 39.3696 35.3748 41.0969 38.3294L44.5501 36.3106ZM42.5435 28.14C42.5435 24.9588 43.2354 22.2782 44.5501 20.0294L41.0969 18.0106C39.3716 20.9618 38.5435 24.3612 38.5435 28.14H42.5435ZM44.5385 20.049C45.9141 17.7564 47.7471 16.0137 50.0605 14.7869L48.1865 11.2531C45.2199 12.8263 42.853 15.0836 41.1085 17.991L44.5385 20.049ZM50.0496 14.7927C52.4131 13.558 55.1096 12.92 58.1835 12.92V8.92C54.5375 8.92 51.194 9.68197 48.1975 11.2473L50.0496 14.7927ZM58.1835 12.92C61.258 12.92 63.9295 13.5582 66.2465 14.7869L68.1205 11.2531C65.1576 9.68182 61.829 8.92 58.1835 8.92V12.92ZM66.2575 14.7927C68.6056 16.0193 70.4275 17.7554 71.7569 20.0294L75.2101 18.0106C73.4995 15.0846 71.1215 12.8207 68.1096 11.2473L66.2575 14.7927ZM71.7685 20.049C73.1159 22.2945 73.8235 24.968 73.8235 28.14H77.8235C77.8235 24.352 76.9712 20.9455 75.1985 17.991L71.7685 20.049ZM73.8235 28.14C73.8235 31.3113 73.1161 34.0105 71.7617 36.3025L75.2054 38.3375C76.971 35.3495 77.8235 31.9287 77.8235 28.14H73.8235ZM71.7569 36.3106C70.4275 38.5846 68.6056 40.3207 66.2575 41.5473L68.1096 45.0927C71.1215 43.5193 73.4995 41.2554 75.2101 38.3294L71.7569 36.3106ZM66.2575 41.5473C63.894 42.782 61.1975 43.42 58.1235 43.42V47.42C61.7696 47.42 65.1131 46.658 68.1096 45.0927L66.2575 41.5473ZM58.1235 37.22C60.3202 37.22 62.224 36.3869 63.6901 34.7579L60.7169 32.0821C60.023 32.8531 59.2068 33.22 58.1235 33.22V37.22ZM63.6877 34.7606C65.2444 33.0371 65.8835 30.7331 65.8835 28.14H61.8835C61.8835 30.1069 61.4026 31.3229 60.7193 32.0794L63.6877 34.7606ZM65.8835 28.14C65.8835 25.5519 65.2464 23.249 63.6656 21.5554L60.7414 24.2846C61.4007 24.991 61.8835 26.1681 61.8835 28.14H65.8835ZM63.6901 21.5821C62.2347 19.965 60.3563 19.12 58.1835 19.12V23.12C59.2107 23.12 60.0123 23.475 60.7169 24.2579L63.6901 21.5821ZM58.1835 19.12C56.0107 19.12 54.1323 19.965 52.6769 21.5821L55.6501 24.2579C56.3547 23.475 57.1563 23.12 58.1835 23.12V19.12ZM52.6769 21.5821C51.152 23.2764 50.5435 25.5688 50.5435 28.14H54.5435C54.5435 26.1512 55.015 24.9636 55.6501 24.2579L52.6769 21.5821ZM50.5435 28.14C50.5435 30.7242 51.1192 33.0303 52.5921 34.7299L55.6149 32.1101C55.0078 31.4097 54.5435 30.1958 54.5435 28.14H50.5435ZM52.5921 34.7299C54.026 36.3844 55.9252 37.22 58.1235 37.22V33.22C57.0418 33.22 56.261 32.8556 55.6149 32.1101L52.5921 34.7299ZM92.368 17.28H90.368V23.7194L94.0161 18.4131L92.368 17.28ZM97.168 12.72L98.1917 14.4382L97.168 12.72ZM103.228 11.04H105.228V9.04H103.228V11.04ZM103.228 23.58V25.58H105.228V23.58H103.228ZM94.2281 25.08L95.4836 26.6368L94.2281 25.08ZM92.368 45V47H94.368V45H92.368ZM80.608 45H78.608V47H80.608V45ZM80.608 11.34V9.34H78.608V11.34H80.608ZM92.368 11.34H94.368V9.34H92.368V11.34ZM94.0161 18.4131C95.1834 16.7152 96.5754 15.4011 98.1917 14.4382L96.1444 11.0018C94.0006 12.2789 92.1927 14.0048 90.72 16.1469L94.0161 18.4131ZM98.1917 14.4382C99.7663 13.5001 101.433 13.04 103.228 13.04V9.04C100.703 9.04 98.3298 9.69991 96.1444 11.0018L98.1917 14.4382ZM101.228 11.04V23.58H105.228V11.04H101.228ZM103.228 21.58H99.928V25.58H103.228V21.58ZM99.928 21.58C97.1698 21.58 94.7275 22.1079 92.9725 23.5232L95.4836 26.6368C96.2086 26.0521 97.5663 25.58 99.928 25.58V21.58ZM92.9725 23.5232C91.0493 25.0742 90.368 27.5546 90.368 30.3H94.368C94.368 28.0854 94.9268 27.0858 95.4836 26.6368L92.9725 23.5232ZM90.368 30.3V45H94.368V30.3H90.368ZM92.368 43H80.608V47H92.368V43ZM82.608 45V11.34H78.608V45H82.608ZM80.608 13.34H92.368V9.34H80.608V13.34ZM90.368 11.34V17.28H94.368V11.34H90.368ZM119.204 17.28H117.204V23.7194L120.852 18.4131L119.204 17.28ZM124.004 12.72L125.028 14.4382L124.004 12.72ZM130.064 11.04H132.064V9.04H130.064V11.04ZM130.064 23.58V25.58H132.064V23.58H130.064ZM121.064 25.08L122.319 26.6368L121.064 25.08ZM119.204 45V47H121.204V45H119.204ZM107.444 45H105.444V47H107.444V45ZM107.444 11.34V9.34H105.444V11.34H107.444ZM119.204 11.34H121.204V9.34H119.204V11.34ZM120.852 18.4131C122.019 16.7152 123.411 15.4011 125.028 14.4382L122.98 11.0018C120.837 12.2789 119.029 14.0048 117.556 16.1469L120.852 18.4131ZM125.028 14.4382C126.602 13.5001 128.269 13.04 130.064 13.04V9.04C127.539 9.04 125.166 9.69991 122.98 11.0018L125.028 14.4382ZM128.064 11.04V23.58H132.064V11.04H128.064ZM130.064 21.58H126.764V25.58H130.064V21.58ZM126.764 21.58C124.006 21.58 121.563 22.1079 119.808 23.5232L122.319 26.6368C123.045 26.0521 124.402 25.58 126.764 25.58V21.58ZM119.808 23.5232C117.885 25.0742 117.204 27.5546 117.204 30.3H121.204C121.204 28.0854 121.763 27.0858 122.319 26.6368L119.808 23.5232ZM117.204 30.3V45H121.204V30.3H117.204ZM119.204 43H107.444V47H119.204V43ZM109.444 45V11.34H105.444V45H109.444ZM107.444 13.34H119.204V9.34H107.444V13.34ZM117.204 11.34V17.28H121.204V11.34H117.204ZM140.88 43.32L139.943 45.087L139.954 45.0927L140.88 43.32ZM134.64 37.32L136.367 36.3106L134.64 37.32ZM134.64 19.02L132.925 17.991L132.919 18.0008L132.913 18.0106L134.64 19.02ZM140.94 13.02L140.014 11.2473L140.003 11.2531L140.94 13.02ZM159 13.02L158.063 14.787L158.074 14.7927L159 13.02ZM165.3 19.02L163.573 20.0294L163.579 20.0392L163.585 20.049L165.3 19.02ZM165.3 37.32L163.578 36.3025L163.573 36.3106L165.3 37.32ZM159 43.32L158.074 41.5473L159 43.32ZM154.02 33.42L152.536 32.0794L152.533 32.0821L154.02 33.42ZM154.02 22.92L152.533 24.2579L152.545 24.2714L152.558 24.2846L154.02 22.92ZM145.92 33.42L144.409 34.7299L145.92 33.42ZM149.94 43.42C146.866 43.42 144.169 42.782 141.806 41.5473L139.954 45.0927C142.95 46.658 146.294 47.42 149.94 47.42V43.42ZM141.817 41.5531C139.508 40.3287 137.7 38.5923 136.367 36.3106L132.913 38.3294C134.619 41.2477 136.972 43.5113 139.943 45.0869L141.817 41.5531ZM136.367 36.3106C135.054 34.0652 134.36 31.3657 134.36 28.14H130.36C130.36 31.9543 131.186 35.3748 132.913 38.3294L136.367 36.3106ZM134.36 28.14C134.36 24.9588 135.052 22.2782 136.367 20.0294L132.913 18.0106C131.188 20.9618 130.36 24.3612 130.36 28.14H134.36ZM136.355 20.049C137.73 17.7564 139.564 16.0137 141.877 14.7869L140.003 11.2531C137.036 12.8263 134.669 15.0836 132.925 17.991L136.355 20.049ZM141.866 14.7927C144.229 13.558 146.926 12.92 150 12.92V8.92C146.354 8.92 143.01 9.68197 140.014 11.2473L141.866 14.7927ZM150 12.92C153.074 12.92 155.746 13.5582 158.063 14.7869L159.937 11.2531C156.974 9.68182 153.645 8.92 150 8.92V12.92ZM158.074 14.7927C160.422 16.0193 162.244 17.7554 163.573 20.0294L167.027 18.0106C165.316 15.0846 162.938 12.8207 159.926 11.2473L158.074 14.7927ZM163.585 20.049C164.932 22.2945 165.64 24.968 165.64 28.14H169.64C169.64 24.352 168.788 20.9455 167.015 17.991L163.585 20.049ZM165.64 28.14C165.64 31.3113 164.932 34.0105 163.578 36.3025L167.022 38.3375C168.787 35.3495 169.64 31.9287 169.64 28.14H165.64ZM163.573 36.3106C162.244 38.5846 160.422 40.3207 158.074 41.5473L159.926 45.0927C162.938 43.5193 165.316 41.2554 167.027 38.3294L163.573 36.3106ZM158.074 41.5473C155.71 42.782 153.014 43.42 149.94 43.42V47.42C153.586 47.42 156.929 46.658 159.926 45.0927L158.074 41.5473ZM149.94 37.22C152.137 37.22 154.04 36.3869 155.507 34.7579L152.533 32.0821C151.839 32.8531 151.023 33.22 149.94 33.22V37.22ZM155.504 34.7606C157.061 33.0371 157.7 30.7331 157.7 28.14H153.7C153.7 30.1069 153.219 31.3229 152.536 32.0794L155.504 34.7606ZM157.7 28.14C157.7 25.5519 157.063 23.249 155.482 21.5554L152.558 24.2846C153.217 24.991 153.7 26.1681 153.7 28.14H157.7ZM155.507 21.5821C154.051 19.965 152.173 19.12 150 19.12V23.12C151.027 23.12 151.829 23.475 152.533 24.2579L155.507 21.5821ZM150 19.12C147.827 19.12 145.949 19.965 144.493 21.5821L147.467 24.2579C148.171 23.475 148.973 23.12 150 23.12V19.12ZM144.493 21.5821C142.968 23.2764 142.36 25.5688 142.36 28.14H146.36C146.36 26.1512 146.831 24.9636 147.467 24.2579L144.493 21.5821ZM142.36 28.14C142.36 30.7242 142.936 33.0303 144.409 34.7299L147.431 32.1101C146.824 31.4097 146.36 30.1958 146.36 28.14H142.36ZM144.409 34.7299C145.842 36.3844 147.742 37.22 149.94 37.22V33.22C148.858 33.22 148.077 32.8556 147.431 32.1101L144.409 34.7299ZM222.164 11.34L224.102 11.834L224.738 9.34H222.164V11.34ZM213.584 45V47H215.139L215.522 45.494L213.584 45ZM200.384 45L198.435 45.4472L198.791 47H200.384V45ZM195.704 24.6L197.654 24.1528L193.759 24.1365L195.704 24.6ZM190.844 45V47H192.424L192.79 45.4635L190.844 45ZM177.704 45L175.766 45.4908L176.148 47H177.704V45ZM169.184 11.34V9.34H166.615L167.246 11.8308L169.184 11.34ZM180.884 11.34L182.856 11.006L182.574 9.34H180.884V11.34ZM184.664 33.66L182.693 33.994L186.616 34.0955L184.664 33.66ZM189.644 11.34V9.34H188.042L187.692 10.9045L189.644 11.34ZM202.244 11.34L204.193 10.8907L203.836 9.34H202.244V11.34ZM207.404 33.72L205.456 34.1693L209.377 34.0479L207.404 33.72ZM211.124 11.34V9.34H209.429L209.152 11.0121L211.124 11.34ZM220.226 10.846L211.646 44.506L215.522 45.494L224.102 11.834L220.226 10.846ZM213.584 43H200.384V47H213.584V43ZM202.334 44.5528L197.654 24.1528L193.755 25.0472L198.435 45.4472L202.334 44.5528ZM193.759 24.1365L188.899 44.5365L192.79 45.4635L197.65 25.0635L193.759 24.1365ZM190.844 43H177.704V47H190.844V43ZM179.643 44.5092L171.123 10.8492L167.246 11.8308L175.766 45.4908L179.643 44.5092ZM169.184 13.34H180.884V9.34H169.184V13.34ZM178.913 11.674L182.693 33.994L186.636 33.326L182.856 11.006L178.913 11.674ZM186.616 34.0955L191.596 11.7755L187.692 10.9045L182.712 33.2245L186.616 34.0955ZM189.644 13.34H202.244V9.34H189.644V13.34ZM200.296 11.7893L205.456 34.1693L209.353 33.2707L204.193 10.8907L200.296 11.7893ZM209.377 34.0479L213.097 11.6679L209.152 11.0121L205.432 33.3921L209.377 34.0479ZM211.124 13.34H222.164V9.34H211.124V13.34Z" fill="black" mask="url(#path-1-outside-1_12_15)"/>
</svg>
