<svg width="89" height="45" viewBox="0 0 89 45" fill="none" xmlns="http://www.w3.org/2000/svg">
<path d="M21.0063 15.71C22.8663 16.13 24.3363 17.06 25.4163 18.5C26.5263 19.91 27.0813 21.53 27.0813 23.36C27.0813 26.06 26.1513 28.175 24.2913 29.705C22.4313 31.235 19.8213 32 16.4613 32H0.756328V0.274998H15.9663C19.2063 0.274998 21.7413 0.994999 23.5713 2.435C25.4313 3.875 26.3613 5.9 26.3613 8.51C26.3613 10.37 25.8663 11.93 24.8763 13.19C23.9163 14.42 22.6263 15.26 21.0063 15.71ZM9.57633 12.875H14.0313C16.2513 12.875 17.3613 11.96 17.3613 10.13C17.3613 8.24 16.2513 7.295 14.0313 7.295H9.57633V12.875ZM14.7063 24.89C16.9263 24.89 18.0363 23.96 18.0363 22.1C18.0363 21.14 17.7363 20.405 17.1363 19.895C16.5663 19.385 15.7413 19.13 14.6613 19.13H9.57633V24.89H14.7063ZM56.7768 6.755V32H47.9118V28.4C47.1618 29.54 46.1268 30.47 44.8068 31.19C43.4868 31.88 41.9718 32.225 40.2618 32.225C37.3218 32.225 34.9968 31.265 33.2868 29.345C31.6068 27.395 30.7668 24.755 30.7668 21.425V6.755H39.5418V20.3C39.5418 21.74 39.9168 22.88 40.6668 23.72C41.4468 24.53 42.4668 24.935 43.7268 24.935C45.0168 24.935 46.0368 24.53 46.7868 23.72C47.5368 22.88 47.9118 21.74 47.9118 20.3V6.755H56.7768ZM88.9764 6.755L72.9564 44.015H63.3714L69.4014 30.92L59.0514 6.755H68.8614L74.1714 21.065L79.3014 6.755H88.9764Z" fill="url(#paint0_linear_12_16)"/>
<defs>
<linearGradient id="paint0_linear_12_16" x1="43.5" y1="49" x2="43.5" y2="-18" gradientUnits="userSpaceOnUse">
<stop stop-color="#160091"/>
<stop offset="1" stop-color="#C6BCFF"/>
</linearGradient>
</defs>
</svg>
