<svg width="328" height="249" viewBox="0 0 328 249" fill="none" xmlns="http://www.w3.org/2000/svg">
<g clip-path="url(#clip0_12_5)">
<path d="M120.12 86.885H86.7122C84.9457 86.885 83.5137 88.308 83.5137 90.0632V206.254C83.5137 208.009 84.9457 209.432 86.7122 209.432H120.12C121.886 209.432 123.318 208.009 123.318 206.254V90.0632C123.318 88.308 121.886 86.885 120.12 86.885Z" fill="#2C282C"/>
<path d="M209.189 101.287C210.983 105.318 213.362 109.066 216.248 112.413C216.52 112.726 216.797 113.034 217.079 113.336C218.17 114.498 219.344 115.58 220.593 116.573C220.891 116.816 221.201 117.048 221.505 117.275C225.138 119.94 228.814 121.306 232.23 121.306C232.545 121.306 232.854 121.306 233.164 121.268L233.501 121.241H233.544C233.74 121.241 233.93 121.198 234.125 121.165C234.217 121.165 234.304 121.133 234.397 121.117L234.739 121.052L235.016 120.987L235.347 120.912L235.57 120.842L235.95 120.734L236.178 120.653C236.297 120.61 236.422 120.572 236.542 120.523L236.639 120.48C236.802 120.421 236.96 120.356 237.123 120.28C237.411 120.151 237.693 120.011 237.97 119.865L238.057 119.811C238.301 119.671 238.54 119.53 238.774 119.379C239.294 119.038 239.787 118.656 240.245 118.235C240.278 118.235 240.305 118.176 240.332 118.149C241.006 117.521 241.611 116.822 242.135 116.066L242.227 115.92C242.379 115.694 242.531 115.467 242.673 115.23C242.693 115.197 242.711 115.163 242.727 115.127C242.879 114.868 243.026 114.588 243.161 114.339C243.199 114.269 243.226 114.199 243.259 114.134C243.378 113.892 243.498 113.649 243.607 113.395C243.666 113.26 243.715 113.115 243.769 112.974C243.824 112.834 243.927 112.597 244.003 112.397L244.133 111.992C244.702 110.272 245.066 108.492 245.219 106.688C245.762 100.639 244.389 93.6083 241.348 86.8958C234.695 72.2027 222.423 63.8499 213.403 67.8806C208.782 69.9472 205.903 74.7766 205.301 81.4891C205.164 83.0522 205.148 84.6234 205.252 86.189C205.646 91.4149 206.979 96.5283 209.189 101.287Z" fill="#2C282C"/>
<path d="M320.892 67.9562C319.485 67.9551 318.109 68.3689 316.939 69.1451C315.769 69.9212 314.857 71.025 314.319 72.3165C313.781 73.6079 313.64 75.0291 313.915 76.4001C314.19 77.771 314.868 79.03 315.864 80.0177C316.859 81.0054 318.127 81.6774 319.507 81.9485C320.888 82.2197 322.318 82.0778 323.617 81.5409C324.915 81.004 326.025 80.0961 326.804 78.9323C327.583 77.7686 327.998 76.4011 327.995 75.0032C327.99 73.1337 327.24 71.3421 325.909 70.0211C324.577 68.7002 322.773 67.9576 320.892 67.9562Z" fill="#2C282C"/>
<path d="M291.801 84.9155C291.75 84.6834 291.623 84.4744 291.441 84.321C291.258 84.1677 291.029 84.0786 290.79 84.0675C290.551 84.0564 290.316 84.124 290.119 84.2598C289.923 84.3956 289.777 84.5919 289.705 84.8184C289.012 86.6036 287.951 88.2246 286.589 89.5769C285.227 90.9292 283.595 91.9827 281.798 92.6695C281.574 92.7421 281.381 92.8849 281.246 93.0765C281.111 93.2681 281.042 93.4981 281.05 93.7319C281.058 93.9656 281.142 94.1904 281.29 94.3725C281.437 94.5546 281.641 94.6841 281.869 94.7415C283.716 95.2984 285.395 96.3001 286.759 97.6576C288.122 99.015 289.127 100.686 289.683 102.522C289.754 102.742 289.893 102.933 290.081 103.067C290.268 103.202 290.494 103.274 290.726 103.272C290.957 103.276 291.183 103.206 291.372 103.073C291.56 102.94 291.701 102.751 291.774 102.533C292.363 100.712 293.381 99.0557 294.743 97.7027C296.105 96.3496 297.771 95.3382 299.604 94.7523C299.827 94.6752 300.018 94.5302 300.153 94.3379C300.287 94.1457 300.356 93.9162 300.35 93.6824C300.345 93.4486 300.265 93.2226 300.122 93.0367C299.979 92.8508 299.781 92.7147 299.556 92.6479C297.686 92.1645 295.981 91.1925 294.617 89.8327C293.253 88.4729 292.281 86.775 291.801 84.9155Z" fill="#2C282C"/>
<path d="M278.985 47.2466C286.365 49.7072 291.16 54.4718 293.647 61.8156C293.786 62.2256 294.049 62.5823 294.402 62.8359C294.754 63.0894 295.178 63.227 295.613 63.2293C296.046 63.2288 296.469 63.0946 296.822 62.8452C297.175 62.5958 297.441 62.2436 297.584 61.8372C300.158 54.5689 304.964 49.7935 312.284 47.2358C312.699 47.0887 313.056 46.8155 313.304 46.4551C313.553 46.0947 313.681 45.6655 313.671 45.2285C313.66 44.7916 313.511 44.3691 313.244 44.0213C312.978 43.6735 312.608 43.4181 312.187 43.2914C304.644 41.0521 299.876 36.3145 297.622 28.8142C297.5 28.4021 297.252 28.0381 296.912 27.7724C296.572 27.5067 296.158 27.3525 295.726 27.3311C295.294 27.3098 294.866 27.4224 294.502 27.6533C294.137 27.8842 293.854 28.222 293.691 28.6199C292.391 31.9696 290.399 35.0115 287.844 37.5496C285.289 40.0877 282.227 42.0657 278.855 43.3562C278.461 43.5173 278.126 43.7943 277.895 44.15C277.663 44.5057 277.547 44.9231 277.561 45.3464C277.575 45.7696 277.719 46.1784 277.974 46.518C278.228 46.8576 278.581 47.1119 278.985 47.2466Z" fill="#2C282C"/>
<path d="M311.589 230.508H278.231L305.133 218.486C307.536 217.405 309.411 215.421 310.346 212.97C311.281 210.519 311.201 207.799 310.123 205.406L285.567 151.172L275.027 127.883L239.936 50.3491C239.4 49.1642 238.634 48.0958 237.682 47.2052C236.73 46.3146 235.611 45.6191 234.388 45.1585C233.166 44.698 231.864 44.4814 230.557 44.5212C229.25 44.5609 227.964 44.8563 226.772 45.3903L187.609 62.8892C186.344 63.4514 185.213 64.2734 184.291 65.3012L170.573 7.62424C170.275 6.35938 169.727 5.16552 168.964 4.11103C168.2 3.05653 167.234 2.1621 166.122 1.47895C165.01 0.795799 163.773 0.33734 162.482 0.129823C161.191 -0.077694 159.872 -0.0301945 158.6 0.269602L127.212 7.63503C124.645 8.24242 122.425 9.83675 121.04 12.0683C119.654 14.2998 119.216 16.9863 119.821 19.5384L129.824 61.6266C128.749 61.2404 127.616 61.0414 126.473 61.0384H80.3695C79.153 61.0412 77.9473 61.2662 76.8126 61.7021V31.2961C76.8098 28.5078 75.6937 25.8345 73.7095 23.8629C71.7253 21.8913 69.0349 20.7823 66.2288 20.7795H24.4149C23.0236 20.7781 21.6457 21.049 20.3597 21.5767C19.0738 22.1044 17.905 22.8787 16.9202 23.8553C15.9354 24.8318 15.1538 25.9916 14.6201 27.2683C14.0863 28.545 13.8109 29.9136 13.8094 31.2961V224.794C13.808 226.83 14.4064 228.822 15.5309 230.524H9.30222C6.87331 230.583 4.56363 231.582 2.86651 233.31C1.16938 235.037 0.21936 237.356 0.21936 239.77C0.21936 242.184 1.16938 244.503 2.86651 246.23C4.56363 247.958 6.87331 248.958 9.30222 249.016H311.589C314.018 248.958 316.328 247.958 318.025 246.23C319.722 244.503 320.672 242.184 320.672 239.77C320.672 237.356 319.722 235.037 318.025 233.31C316.328 231.582 314.018 230.583 311.589 230.524V230.508ZM220.31 216.743L215.77 197.679L211.747 180.763L191.491 95.6047L217.709 153.519L228.249 176.802L252.567 230.524H204.986L212.909 228.668C215.479 228.058 217.702 226.46 219.089 224.225C220.477 221.99 220.916 219.299 220.31 216.743ZM281.044 156.676L304.286 208.012C304.673 208.867 304.704 209.839 304.371 210.716C304.038 211.593 303.369 212.303 302.51 212.691L263.346 230.2C262.484 230.583 261.504 230.611 260.622 230.277C259.739 229.943 259.026 229.275 258.638 228.42L235.396 177.072L235.939 176.819L281.044 156.676ZM188.363 70.6539C188.528 70.2194 188.779 69.8216 189.099 69.4836C189.42 69.1455 189.805 68.8739 190.231 68.6844L229.401 51.1801C229.859 50.9761 230.354 50.8695 230.856 50.8671C231.287 50.8662 231.714 50.9449 232.116 51.0991C232.554 51.2623 232.956 51.5105 233.297 51.8291C233.638 52.1477 233.912 52.5306 234.103 52.9553L267.886 127.586L227.125 145.803L222.238 147.994L188.434 73.3843C188.239 72.957 188.132 72.4952 188.12 72.0262C188.108 71.5572 188.191 71.0906 188.363 70.6539ZM186.012 190.049L206.256 185.29L208.814 196.044L183.134 202.072L170.514 205.045L167.961 194.301L186.012 190.049ZM135.075 21.8209L157.953 16.452C158.363 16.3532 158.789 16.3359 159.206 16.401C159.623 16.4662 160.023 16.6125 160.382 16.8316C160.742 17.0507 161.055 17.3383 161.302 17.6778C161.55 18.0173 161.728 18.4021 161.825 18.81L171.057 57.5904C171.154 57.9965 171.169 58.4175 171.102 58.8294C171.034 59.2413 170.886 59.636 170.665 59.9909C170.444 60.3457 170.155 60.6538 169.814 60.8975C169.473 61.1411 169.087 61.3155 168.678 61.4107L145.8 66.8067C145.56 66.862 145.314 66.8909 145.067 66.893C144.346 66.8936 143.646 66.6518 143.081 66.207C142.517 65.7622 142.12 65.1406 141.955 64.4432L132.724 25.6628C132.623 25.2571 132.605 24.8357 132.668 24.4227C132.732 24.0098 132.878 23.6135 133.096 23.2565C133.315 22.8995 133.602 22.589 133.942 22.3426C134.281 22.0962 134.666 21.9189 135.075 21.8209ZM76.7909 224.778V70.9129C76.7923 69.9755 77.1674 69.0768 77.834 68.4135C78.5005 67.7501 79.4044 67.3761 80.3478 67.3732H126.473C127.418 67.3747 128.323 67.748 128.991 68.4116C129.659 69.0751 130.034 69.9746 130.036 70.9129V225.403C130.034 226.341 129.658 227.24 128.99 227.903C128.323 228.566 127.417 228.938 126.473 228.938H80.3695C79.4266 228.936 78.5227 228.564 77.856 227.901C77.1893 227.239 76.8141 226.34 76.8126 225.403L76.7909 224.778ZM20.2064 69.564H70.3939V76.2873H20.2064V69.564ZM20.2064 82.6383H70.3939V97.585H20.2064V82.6383ZM20.2064 178.508H70.3939V185.225H20.2064V178.508ZM136.416 225.403V89.3886L160.973 192.661L164.996 209.572L169.531 228.646C169.68 229.281 169.893 229.899 170.166 230.492H134.983C135.925 228.96 136.425 227.199 136.427 225.403H136.416Z" fill="#2C282C"/>
</g>
<defs>
<clipPath id="clip0_12_5">
<rect width="328" height="249" fill="white"/>
</clipPath>
</defs>
</svg>
