<svg width="243" height="73" viewBox="0 0 243 73" fill="none" xmlns="http://www.w3.org/2000/svg">
<path d="M34.5855 72L21.1455 47.04H19.1295V72H0.3135V4.32H29.9775C35.4175 4.32 40.0255 5.28 43.8015 7.2C47.5775 9.056 50.4255 11.648 52.3455 14.976C54.2655 18.24 55.2255 21.92 55.2255 26.016C55.2255 30.624 53.9455 34.688 51.3855 38.208C48.8895 41.664 45.2095 44.128 40.3455 45.6L55.6095 72H34.5855ZM19.1295 34.176H28.4415C31.0015 34.176 32.9215 33.568 34.2015 32.352C35.4815 31.136 36.1215 29.376 36.1215 27.072C36.1215 24.896 35.4495 23.2 34.1055 21.984C32.8255 20.704 30.9375 20.064 28.4415 20.064H19.1295V34.176ZM115.238 44.448C115.238 45.92 115.142 47.392 114.95 48.864H79.3343C79.5263 51.808 80.3263 54.016 81.7343 55.488C83.2063 56.896 85.0623 57.6 87.3023 57.6C90.4383 57.6 92.6783 56.192 94.0223 53.376H114.086C113.254 57.088 111.622 60.416 109.19 63.36C106.822 66.24 103.814 68.512 100.166 70.176C96.5183 71.84 92.4863 72.672 88.0703 72.672C82.7583 72.672 78.0223 71.552 73.8623 69.312C69.7663 67.072 66.5343 63.872 64.1663 59.712C61.8623 55.552 60.7103 50.656 60.7103 45.024C60.7103 39.392 61.8623 34.528 64.1663 30.432C66.4703 26.272 69.6703 23.072 73.7663 20.832C77.9263 18.592 82.6943 17.472 88.0703 17.472C93.3823 17.472 98.0863 18.56 102.182 20.736C106.278 22.912 109.478 26.048 111.782 30.144C114.086 34.176 115.238 38.944 115.238 44.448ZM96.0383 39.744C96.0383 37.44 95.2703 35.648 93.7343 34.368C92.1983 33.024 90.2783 32.352 87.9743 32.352C85.6703 32.352 83.7823 32.992 82.3103 34.272C80.8383 35.488 79.8783 37.312 79.4303 39.744H96.0383ZM119.867 45.024C119.867 39.456 120.859 34.592 122.843 30.432C124.891 26.272 127.643 23.072 131.099 20.832C134.619 18.592 138.523 17.472 142.811 17.472C146.523 17.472 149.723 18.208 152.411 19.68C155.099 21.152 157.179 23.136 158.651 25.632V18.144H177.467V72H158.651V64.512C157.179 67.008 155.067 68.992 152.315 70.464C149.627 71.936 146.459 72.672 142.811 72.672C138.523 72.672 134.619 71.552 131.099 69.312C127.643 67.072 124.891 63.872 122.843 59.712C120.859 55.488 119.867 50.592 119.867 45.024ZM158.651 45.024C158.651 41.568 157.691 38.848 155.771 36.864C153.915 34.88 151.611 33.888 148.859 33.888C146.043 33.888 143.707 34.88 141.851 36.864C139.995 38.784 139.067 41.504 139.067 45.024C139.067 48.48 139.995 51.232 141.851 53.28C143.707 55.264 146.043 56.256 148.859 56.256C151.611 56.256 153.915 55.264 155.771 53.28C157.691 51.296 158.651 48.544 158.651 45.024ZM185.117 45.024C185.117 39.456 186.109 34.592 188.093 30.432C190.141 26.272 192.925 23.072 196.445 20.832C199.965 18.592 203.869 17.472 208.156 17.472C211.613 17.472 214.685 18.208 217.373 19.68C220.125 21.088 222.269 23.04 223.805 25.536V0.959999H242.717V72H223.805V64.512C222.333 67.008 220.253 68.992 217.565 70.464C214.877 71.936 211.709 72.672 208.061 72.672C203.773 72.672 199.869 71.552 196.349 69.312C192.893 67.072 190.141 63.872 188.093 59.712C186.109 55.488 185.117 50.592 185.117 45.024ZM223.901 45.024C223.901 41.568 222.941 38.848 221.021 36.864C219.165 34.88 216.861 33.888 214.109 33.888C211.293 33.888 208.957 34.88 207.101 36.864C205.245 38.784 204.317 41.504 204.317 45.024C204.317 48.48 205.245 51.232 207.101 53.28C208.957 55.264 211.293 56.256 214.109 56.256C216.861 56.256 219.165 55.264 221.021 53.28C222.941 51.296 223.901 48.544 223.901 45.024Z" fill="url(#paint0_linear_12_17)"/>
<defs>
<linearGradient id="paint0_linear_12_17" x1="121.969" y1="-34" x2="121.031" y2="81" gradientUnits="userSpaceOnUse">
<stop offset="0.485" stop-color="#160091"/>
<stop offset="1" stop-color="#C6BCFF"/>
</linearGradient>
</defs>
</svg>
