<svg width="81" height="92" viewBox="0 0 81 92" fill="none" xmlns="http://www.w3.org/2000/svg">
<path d="M52.3882 11.199C47.7515 -1.45982 32.2362 -1.43841 27.6253 11.2332L25.2084 17.8756C24.246 20.5204 22.1449 22.3208 19.7416 22.6338L12.9789 23.5148C1.54685 25.004 -2.99905 41.2097 5.23109 50.2442L10.9802 56.5551C12.6787 58.4196 13.4443 61.1878 12.9792 63.8817L11.6008 71.8652C9.31227 85.1203 21.8694 95.4472 31.9718 88.0461L36.5043 84.7256C38.6917 83.1231 41.4682 83.1192 43.6589 84.7157L48.1982 88.0237C58.3156 95.3969 70.8517 85.0354 68.5361 71.7866L67.1415 63.8069C66.6709 61.1143 67.4309 58.344 69.1256 56.4749L74.8618 50.1481C83.0735 41.0909 78.4947 24.8977 67.0596 23.4401L60.2952 22.5778C57.8912 22.2714 55.7864 20.4768 54.8187 17.8347L52.3882 11.199Z" fill="white" stroke="#DA6F00" stroke-width="2" stroke-linecap="round" stroke-linejoin="round"/>
</svg>
